<svg id="Grupo_342" data-name="Grupo 342" xmlns="http://www.w3.org/2000/svg" width="183.597" height="54.399" viewBox="0 0 183.597 54.399">
  <g id="g34">
    <path id="path36" d="M-378.054,885.925h-170a6.82,6.82,0,0,1-6.8-6.8v-40.8a6.82,6.82,0,0,1,6.8-6.8h170a6.82,6.82,0,0,1,6.8,6.8v40.8a6.82,6.82,0,0,1-6.8,6.8" transform="translate(554.851 -831.526)"/>
  </g>
  <g id="g38">
    <path id="path40" d="M-378.054,831.526h-170a6.82,6.82,0,0,0-6.8,6.8v40.8a6.82,6.82,0,0,0,6.8,6.8h170a6.82,6.82,0,0,0,6.8-6.8v-40.8a6.82,6.82,0,0,0-6.8-6.8m0,1.088a5.718,5.718,0,0,1,5.712,5.712v40.8a5.718,5.718,0,0,1-5.712,5.712h-170a5.718,5.718,0,0,1-5.712-5.712v-40.8a5.718,5.718,0,0,1,5.712-5.712h170" transform="translate(554.851 -831.526)" fill="#a6a6a6"/>
  </g>
  <g id="Grupo_253" data-name="Grupo 253" transform="translate(24.6 10)">
    <g id="Grupo_250" data-name="Grupo 250" transform="translate(0 0.947)">
      <g id="Grupo_249" data-name="Grupo 249">
        <g id="Grupo_247" data-name="Grupo 247">
          <g id="Grupo_246" data-name="Grupo 246">
            <path id="Trazado_16396" data-name="Trazado 16396" d="M-505.926,861.3a6.683,6.683,0,0,1,3.183-5.608,6.842,6.842,0,0,0-5.391-2.914c-2.268-.239-4.466,1.357-5.622,1.357-1.178,0-2.957-1.333-4.873-1.294a7.179,7.179,0,0,0-6.041,3.684c-2.612,4.522-.664,11.168,1.839,14.823,1.251,1.79,2.715,3.789,4.629,3.719,1.873-.077,2.573-1.194,4.834-1.194,2.24,0,2.9,1.194,4.849,1.149,2.01-.032,3.277-1.8,4.485-3.6a14.792,14.792,0,0,0,2.051-4.177A6.458,6.458,0,0,1-505.926,861.3Z" transform="translate(525.909 -845.657)" fill="#fff"/>
            <path id="Trazado_16397" data-name="Trazado 16397" d="M-507.516,849.119a6.581,6.581,0,0,0,1.505-4.714,6.692,6.692,0,0,0-4.332,2.241,6.26,6.26,0,0,0-1.544,4.54A5.534,5.534,0,0,0-507.516,849.119Z" transform="translate(523.811 -844.405)" fill="#fff"/>
          </g>
        </g>
        <g id="Grupo_248" data-name="Grupo 248" transform="translate(33.027 12.358)">
          <path id="Trazado_16398" data-name="Trazado 16398" d="M-476.417,871.51h-6.393l-1.535,4.533h-2.708L-481,859.272h2.813l6.055,16.771h-2.754Zm-5.731-2.092h5.067l-2.5-7.357h-.07Z" transform="translate(487.053 -858.993)" fill="#fff"/>
          <path id="Trazado_16399" data-name="Trazado 16399" d="M-456.145,870.709c0,3.8-2.034,6.241-5.1,6.241a4.143,4.143,0,0,1-3.847-2.139h-.058v6.056h-2.51V864.6h2.429v2.033h.046a4.339,4.339,0,0,1,3.894-2.162C-458.19,864.467-456.145,866.92-456.145,870.709Zm-2.58,0c0-2.475-1.279-4.1-3.231-4.1-1.918,0-3.208,1.662-3.208,4.1,0,2.463,1.29,4.114,3.208,4.114C-460,874.823-458.724,873.207-458.724,870.709Z" transform="translate(484.144 -859.773)" fill="#fff"/>
          <path id="Trazado_16400" data-name="Trazado 16400" d="M-440.312,870.709c0,3.8-2.034,6.241-5.1,6.241a4.145,4.145,0,0,1-3.848-2.139h-.058v6.056h-2.51V864.6h2.43v2.033h.046a4.339,4.339,0,0,1,3.893-2.162C-442.358,864.467-440.312,866.92-440.312,870.709Zm-2.58,0c0-2.475-1.279-4.1-3.232-4.1-1.918,0-3.207,1.662-3.207,4.1,0,2.463,1.289,4.114,3.207,4.114C-444.171,874.823-442.892,873.207-442.892,870.709Z" transform="translate(481.769 -859.773)" fill="#fff"/>
          <path id="Trazado_16401" data-name="Trazado 16401" d="M-428.269,871.322c.185,1.663,1.8,2.755,4.009,2.755,2.116,0,3.638-1.092,3.638-2.592,0-1.3-.918-2.081-3.091-2.615l-2.173-.523c-3.079-.744-4.509-2.184-4.509-4.521,0-2.893,2.522-4.881,6.1-4.881,3.544,0,5.974,1.987,6.055,4.881h-2.534c-.151-1.674-1.535-2.683-3.556-2.683s-3.406,1.022-3.406,2.509c0,1.186.884,1.884,3.046,2.418l1.848.453c3.441.813,4.87,2.2,4.87,4.649,0,3.137-2.5,5.1-6.473,5.1-3.72,0-6.23-1.919-6.393-4.952Z" transform="translate(478.62 -858.944)" fill="#fff"/>
          <path id="Trazado_16402" data-name="Trazado 16402" d="M-410.087,861.213v2.894h2.326v1.987h-2.326v6.741c0,1.046.466,1.535,1.488,1.535a7.7,7.7,0,0,0,.825-.059v1.975a6.845,6.845,0,0,1-1.394.116c-2.476,0-3.442-.93-3.442-3.3v-7.008h-1.777v-1.987h1.777v-2.894Z" transform="translate(476.152 -859.284)" fill="#fff"/>
          <path id="Trazado_16403" data-name="Trazado 16403" d="M-405.008,870.705c0-3.847,2.265-6.264,5.8-6.264s5.8,2.417,5.8,6.264-2.243,6.264-5.8,6.264S-405.008,874.563-405.008,870.705Zm9.042,0c0-2.639-1.21-4.2-3.244-4.2s-3.242,1.569-3.242,4.2c0,2.65,1.209,4.2,3.242,4.2S-395.966,873.356-395.966,870.705Z" transform="translate(474.745 -859.769)" fill="#fff"/>
          <path id="Trazado_16404" data-name="Trazado 16404" d="M-388.927,864.6h2.394v2.081h.058a2.917,2.917,0,0,1,2.941-2.209,3.889,3.889,0,0,1,.86.094v2.349a3.488,3.488,0,0,0-1.128-.152,2.529,2.529,0,0,0-2.615,2.813v7.253h-2.509Z" transform="translate(472.333 -859.773)" fill="#fff"/>
          <path id="Trazado_16405" data-name="Trazado 16405" d="M-369.9,873.227c-.337,2.219-2.5,3.742-5.264,3.742-3.557,0-5.765-2.383-5.765-6.206s2.219-6.322,5.659-6.322c3.382,0,5.51,2.324,5.51,6.031v.86H-378.4v.152a3.185,3.185,0,0,0,3.289,3.463,2.767,2.767,0,0,0,2.824-1.72Zm-8.484-3.649h6.113a2.94,2.94,0,0,0-3-3.1A3.1,3.1,0,0,0-378.388,869.578Z" transform="translate(471.133 -859.769)" fill="#fff"/>
        </g>
      </g>
    </g>
    <g id="Grupo_252" data-name="Grupo 252" transform="translate(34.707)">
      <g id="Grupo_251" data-name="Grupo 251">
        <path id="Trazado_16406" data-name="Trazado 16406" d="M-482.166,844.421c2.389,0,3.791,1.469,3.791,4,0,2.575-1.391,4.054-3.791,4.054h-2.911v-8.059Zm-1.659,6.919h1.519c1.686,0,2.658-1.05,2.658-2.9,0-1.82-.988-2.881-2.658-2.881h-1.519Z" transform="translate(485.077 -843.461)" fill="#fff"/>
        <path id="Trazado_16407" data-name="Trazado 16407" d="M-470.084,851.166a2.469,2.469,0,0,1-2.635,1.76c-1.742,0-2.809-1.2-2.809-3.139s1.09-3.177,2.8-3.177c1.692,0,2.713,1.156,2.713,3.066v.418h-4.294v.068a1.607,1.607,0,0,0,1.62,1.742,1.459,1.459,0,0,0,1.447-.737Zm-4.222-1.96h3.072a1.467,1.467,0,0,0-1.5-1.575A1.555,1.555,0,0,0-474.306,849.206Z" transform="translate(483.644 -843.789)" fill="#fff"/>
        <path id="Trazado_16408" data-name="Trazado 16408" d="M-464.972,846.609c1.368,0,2.262.637,2.379,1.708h-1.152c-.111-.446-.547-.731-1.227-.731s-1.179.318-1.179.792c0,.364.307.592.966.744l1.011.234c1.156.269,1.7.766,1.7,1.659,0,1.145-1.067,1.91-2.519,1.91s-2.389-.654-2.5-1.731h1.2a1.233,1.233,0,0,0,1.323.759c.748,0,1.279-.335,1.279-.82,0-.363-.285-.6-.894-.743l-1.06-.246c-1.157-.274-1.692-.793-1.692-1.7C-467.334,847.368-466.346,846.609-464.972,846.609Z" transform="translate(482.439 -843.789)" fill="#fff"/>
        <path id="Trazado_16409" data-name="Trazado 16409" d="M-455.759,848.714a1.36,1.36,0,0,0-1.436-1.033c-1,0-1.62.771-1.62,2.066,0,1.318.62,2.105,1.62,2.105a1.322,1.322,0,0,0,1.436-1h1.167a2.38,2.38,0,0,1-2.6,2.072c-1.771,0-2.854-1.2-2.854-3.178,0-1.948,1.078-3.138,2.847-3.138a2.4,2.4,0,0,1,2.6,2.1Z" transform="translate(481.321 -843.789)" fill="#fff"/>
        <path id="Trazado_16410" data-name="Trazado 16410" d="M-452.229,850.59c0-1.095.815-1.725,2.262-1.815l1.647-.1v-.525c0-.642-.425-1-1.245-1-.67,0-1.134.246-1.267.676h-1.162c.122-1.045,1.1-1.714,2.485-1.714,1.524,0,2.384.759,2.384,2.043v4.156h-1.155v-.855h-.1a2.047,2.047,0,0,1-1.827.955A1.837,1.837,0,0,1-452.229,850.59Zm3.909-.519v-.508l-1.485.094c-.837.057-1.218.342-1.218.878s.475.865,1.128.865A1.433,1.433,0,0,0-448.32,850.07Zm-1.91-4.858,1.4-1.921h1.407l-1.569,1.921Z" transform="translate(480.149 -843.291)" fill="#fff"/>
        <path id="Trazado_16411" data-name="Trazado 16411" d="M-444.013,846.729h1.155v.932h.09a1.647,1.647,0,0,1,1.641-1.033,2.49,2.49,0,0,1,.535.05v1.184a3.273,3.273,0,0,0-.67-.072,1.424,1.424,0,0,0-1.552,1.429v3.591h-1.2Z" transform="translate(478.917 -843.792)" fill="#fff"/>
        <path id="Trazado_16412" data-name="Trazado 16412" d="M-438.732,853.42h1.229c.1.441.609.726,1.419.726,1,0,1.592-.474,1.592-1.278V851.7h-.09a2.045,2.045,0,0,1-1.877,1.021c-1.552,0-2.513-1.2-2.513-3.021,0-1.855.971-3.071,2.524-3.071a2.107,2.107,0,0,1,1.91,1.072h.1v-.972h1.15v6.132c0,1.391-1.09,2.273-2.809,2.273C-437.621,855.134-438.6,854.452-438.732,853.42Zm4.262-3.725c0-1.211-.626-1.987-1.648-1.987s-1.613.776-1.613,1.987.581,1.988,1.613,1.988S-434.47,850.912-434.47,849.694Z" transform="translate(478.161 -843.792)" fill="#fff"/>
        <path id="Trazado_16413" data-name="Trazado 16413" d="M-430.449,851.088c0-1.095.816-1.725,2.263-1.815l1.646-.1v-.525c0-.642-.424-1-1.244-1-.67,0-1.135.246-1.267.676h-1.162c.122-1.045,1.1-1.714,2.485-1.714,1.525,0,2.384.759,2.384,2.043v4.156H-426.5v-.855h-.1a2.045,2.045,0,0,1-1.826.955A1.838,1.838,0,0,1-430.449,851.088Zm3.909-.519v-.508l-1.485.094c-.837.057-1.217.342-1.217.878s.475.865,1.128.865A1.433,1.433,0,0,0-426.54,850.568Z" transform="translate(476.882 -843.789)" fill="#fff"/>
        <path id="Trazado_16414" data-name="Trazado 16414" d="M-422.168,843.954h1.2v8.456h-1.2Z" transform="translate(475.64 -843.391)" fill="#fff"/>
        <path id="Trazado_16415" data-name="Trazado 16415" d="M-418.793,849.764c0-1.96,1.095-3.155,2.87-3.155s2.866,1.2,2.866,3.155-1.09,3.161-2.866,3.161S-418.793,851.735-418.793,849.764Zm4.5,0c0-1.318-.592-2.088-1.632-2.088s-1.629.771-1.629,2.088.587,2.094,1.629,2.094S-414.292,851.088-414.292,849.764Z" transform="translate(475.133 -843.789)" fill="#fff"/>
        <path id="Trazado_16416" data-name="Trazado 16416" d="M-401.179,851.166a2.47,2.47,0,0,1-2.635,1.76c-1.743,0-2.809-1.2-2.809-3.139s1.089-3.177,2.8-3.177c1.692,0,2.713,1.156,2.713,3.066v.418H-405.4v.068a1.607,1.607,0,0,0,1.619,1.742,1.458,1.458,0,0,0,1.447-.737Zm-4.222-1.96h3.072a1.468,1.468,0,0,0-1.5-1.575A1.555,1.555,0,0,0-405.4,849.206Z" transform="translate(473.308 -843.789)" fill="#fff"/>
        <path id="Trazado_16417" data-name="Trazado 16417" d="M-398.237,846.726h1.155v.966h.09a1.819,1.819,0,0,1,1.815-1.084,1.978,1.978,0,0,1,2.1,2.262v3.937h-1.2v-3.635c0-.977-.425-1.464-1.312-1.464a1.4,1.4,0,0,0-1.452,1.541v3.558h-1.2Z" transform="translate(472.05 -843.789)" fill="#fff"/>
        <path id="Trazado_16418" data-name="Trazado 16418" d="M-381.007,851.166a2.469,2.469,0,0,1-2.635,1.76c-1.742,0-2.809-1.2-2.809-3.139s1.09-3.177,2.8-3.177c1.692,0,2.713,1.156,2.713,3.066v.418h-4.295v.068a1.607,1.607,0,0,0,1.62,1.742,1.458,1.458,0,0,0,1.447-.737Zm-4.222-1.96h3.072a1.467,1.467,0,0,0-1.5-1.575A1.555,1.555,0,0,0-385.229,849.206Z" transform="translate(470.282 -843.789)" fill="#fff"/>
        <path id="Trazado_16419" data-name="Trazado 16419" d="M-378,843.954h1.2v8.456H-378Z" transform="translate(469.014 -843.391)" fill="#fff"/>
      </g>
    </g>
  </g>
</svg>
