<svg xmlns="http://www.w3.org/2000/svg" width="7.417" height="7.393" viewBox="0 0 7.417 7.393">
  <g id="Grupo_364" data-name="Grupo 364" transform="translate(0.545 0.548)">
    <path id="Stroke_1" data-name="Stroke 1" d="M5.012.22A.75.75,0,0,1,6.145,1.2l-.073.084L1.28,6.072A.75.75,0,0,1,.147,5.1L.22,5.012Z" transform="translate(0.003 0.002)" fill="#ed4370" stroke="#ed4370" stroke-width="1"/>
    <path id="Stroke_2" data-name="Stroke 2" d="M.22.22A.75.75,0,0,1,1.2.147L1.28.22l4.8,4.8A.75.75,0,0,1,5.1,6.15l-.084-.073L.22,1.28A.75.75,0,0,1,.22.22Z" transform="translate(0 0)" fill="#ed4370" stroke="#ed4370" stroke-width="1"/>
  </g>
</svg>
