<svg id="Grupo_889" data-name="Grupo 889" xmlns="http://www.w3.org/2000/svg" width="86.761" height="13.57" viewBox="0 0 86.761 13.57">
  <path id="star" d="M11.382,14.377,7.034,11.188,2.6,14.259,4.29,9.138,0,5.872,5.392,5.9,7.172.806,8.816,5.941l5.391.121L9.831,9.213Z" transform="translate(0 -0.806)" fill="#ed4370"/>
  <path id="star-2" data-name="star" d="M11.382,14.377,7.034,11.188,2.6,14.259,4.29,9.138,0,5.872,5.392,5.9,7.172.806,8.816,5.941l5.391.121L9.831,9.213Z" transform="translate(18.138 -0.806)" fill="#ed4370"/>
  <path id="star-3" data-name="star" d="M11.382,14.377,7.034,11.188,2.6,14.259,4.29,9.138,0,5.872,5.392,5.9,7.172.806,8.816,5.941l5.391.121L9.831,9.213Z" transform="translate(36.277 -0.806)" fill="#ed4370"/>
  <path id="star-4" data-name="star" d="M11.382,14.377,7.034,11.188,2.6,14.259,4.29,9.138,0,5.872,5.392,5.9,7.172.806,8.816,5.941l5.391.121L9.831,9.213Z" transform="translate(54.415 -0.806)" fill="#ed4370"/>
  <path id="star-5" data-name="star" d="M11.382,14.377,7.034,11.188,2.6,14.259,4.29,9.138,0,5.872,5.392,5.9,7.172.806,8.816,5.941l5.391.121L9.831,9.213Z" transform="translate(72.554 -0.806)" fill="#ed4370"/>
</svg>
