<svg id="Grupo_341" data-name="Grupo 341" xmlns="http://www.w3.org/2000/svg" xmlns:xlink="http://www.w3.org/1999/xlink" width="183.597" height="54.4" viewBox="0 0 183.597 54.4">
  <defs>
    <linearGradient id="linear-gradient" x1="293.075" y1="158.174" x2="293.133" y2="158.174" gradientUnits="objectBoundingBox">
      <stop offset="0" stop-color="#00a0ff"/>
      <stop offset="0.007" stop-color="#00a1ff"/>
      <stop offset="0.26" stop-color="#00beff"/>
      <stop offset="0.512" stop-color="#00d2ff"/>
      <stop offset="0.76" stop-color="#00dfff"/>
      <stop offset="1" stop-color="#00e3ff"/>
    </linearGradient>
    <linearGradient id="linear-gradient-2" x1="381.384" y1="455.766" x2="381.457" y2="455.766" gradientUnits="objectBoundingBox">
      <stop offset="0" stop-color="#ffe000"/>
      <stop offset="0.409" stop-color="#ffbd00"/>
      <stop offset="0.775" stop-color="orange"/>
      <stop offset="1" stop-color="#ff9c00"/>
    </linearGradient>
    <linearGradient id="linear-gradient-3" x1="226.734" y1="304.246" x2="226.779" y2="304.246" gradientUnits="objectBoundingBox">
      <stop offset="0" stop-color="#ff3a44"/>
      <stop offset="1" stop-color="#c31162"/>
    </linearGradient>
    <linearGradient id="linear-gradient-4" x1="210.864" y1="298.556" x2="210.909" y2="298.556" gradientUnits="objectBoundingBox">
      <stop offset="0" stop-color="#32a071"/>
      <stop offset="0.068" stop-color="#2da771"/>
      <stop offset="0.476" stop-color="#15cf74"/>
      <stop offset="0.801" stop-color="#06e775"/>
      <stop offset="1" stop-color="#00f076"/>
    </linearGradient>
    <clipPath id="clip-path">
      <rect id="Rectángulo_10723" data-name="Rectángulo 10723" width="22.693" height="11.872" fill="none"/>
    </clipPath>
    <clipPath id="clip-path-2">
      <rect id="Rectángulo_10724" data-name="Rectángulo 10724" width="0.731" height="2.109" fill="none"/>
    </clipPath>
    <clipPath id="clip-path-3">
      <rect id="Rectángulo_10725" data-name="Rectángulo 10725" width="8.206" height="5.744" fill="none"/>
    </clipPath>
    <clipPath id="clip-path-4">
      <rect id="Rectángulo_10726" data-name="Rectángulo 10726" width="31.402" height="17.49" fill="none"/>
    </clipPath>
  </defs>
  <g id="g12" transform="translate(0 0)">
    <g id="Grupo_236" data-name="Grupo 236">
      <g id="g14">
        <g id="g34">
          <path id="path36" d="M-631.046,885.924h-170a6.82,6.82,0,0,1-6.8-6.8v-40.8a6.82,6.82,0,0,1,6.8-6.8h170a6.82,6.82,0,0,1,6.8,6.8v40.8a6.82,6.82,0,0,1-6.8,6.8" transform="translate(807.843 -831.525)"/>
        </g>
        <g id="g38" transform="translate(0 0.001)">
          <path id="path40" d="M-631.046,831.526h-170a6.82,6.82,0,0,0-6.8,6.8v40.8a6.82,6.82,0,0,0,6.8,6.8h170a6.82,6.82,0,0,0,6.8-6.8v-40.8a6.82,6.82,0,0,0-6.8-6.8m0,1.088a5.718,5.718,0,0,1,5.712,5.712v40.8a5.718,5.718,0,0,1-5.712,5.712h-170a5.718,5.718,0,0,1-5.712-5.712v-40.8a5.718,5.718,0,0,1,5.712-5.712h170" transform="translate(807.843 -831.526)" fill="#a6a6a6"/>
        </g>
        <path id="path42" d="M-652.561,876.417h2.537v-17h-2.537ZM-629.7,865.54l-2.91,7.371h-.087l-3.019-7.371h-2.733l4.527,10.3-2.58,5.731h2.645l6.978-16.032Zm-14.391,8.946c-.833,0-1.992-.415-1.992-1.445,0-1.311,1.443-1.814,2.69-1.814a4.522,4.522,0,0,1,2.319.569,3.076,3.076,0,0,1-3.017,2.69m.306-9.318a4.763,4.763,0,0,0-4.528,2.6l2.253.94a2.4,2.4,0,0,1,2.319-1.247,2.443,2.443,0,0,1,2.668,2.188v.174a5.614,5.614,0,0,0-2.647-.655c-2.428,0-4.9,1.334-4.9,3.827,0,2.275,1.991,3.742,4.221,3.742a3.581,3.581,0,0,0,3.239-1.663h.087v1.312h2.45V869.87c0-3.017-2.252-4.7-5.161-4.7m-15.684,2.441h-3.609v-5.828h3.609a2.946,2.946,0,0,1,2.975,2.913,2.962,2.962,0,0,1-2.975,2.915m-.065-8.194h-6.081v17h2.536v-6.441h3.544a5.388,5.388,0,0,0,5.577-5.281,5.387,5.387,0,0,0-5.577-5.279M-692.7,874.488a3.319,3.319,0,0,1-3.221-3.483,3.346,3.346,0,0,1,3.221-3.527,3.259,3.259,0,0,1,3.089,3.527,3.232,3.232,0,0,1-3.089,3.483m2.915-8h-.088a4.009,4.009,0,0,0-3.045-1.292,5.752,5.752,0,0,0-5.543,5.805,5.727,5.727,0,0,0,5.543,5.762,3.941,3.941,0,0,0,3.045-1.315h.088v.834c0,2.212-1.183,3.4-3.09,3.4a3.2,3.2,0,0,1-2.915-2.06l-2.213.921a5.511,5.511,0,0,0,5.127,3.418c2.979,0,5.5-1.753,5.5-6.025V865.549h-2.41Zm4.162,9.925h2.542v-17h-2.542Zm6.287-5.609a3.173,3.173,0,0,1,3.023-3.374,2.237,2.237,0,0,1,2.147,1.227Zm7.888-1.929a5.375,5.375,0,0,0-4.951-3.68,5.5,5.5,0,0,0-5.455,5.784,5.659,5.659,0,0,0,5.739,5.783,5.753,5.753,0,0,0,4.821-2.563l-1.972-1.315a3.3,3.3,0,0,1-2.849,1.6,2.943,2.943,0,0,1-2.8-1.752l7.734-3.2Zm-61.618-1.9v2.453h5.872a5.126,5.126,0,0,1-1.336,3.089,6.012,6.012,0,0,1-4.536,1.8,6.444,6.444,0,0,1-6.442-6.53,6.443,6.443,0,0,1,6.442-6.529,6.256,6.256,0,0,1,4.426,1.753l1.731-1.731a8.564,8.564,0,0,0-6.157-2.476,9.11,9.11,0,0,0-9.114,8.984,9.108,9.108,0,0,0,9.114,8.983,8.217,8.217,0,0,0,6.266-2.519,8.107,8.107,0,0,0,2.125-5.741,7.929,7.929,0,0,0-.132-1.532Zm15.068,7.514a3.346,3.346,0,0,1-3.266-3.5,3.333,3.333,0,0,1,3.266-3.506,3.333,3.333,0,0,1,3.264,3.506,3.346,3.346,0,0,1-3.264,3.5m0-9.289a5.7,5.7,0,0,0-5.807,5.784,5.714,5.714,0,0,0,5.807,5.783,5.714,5.714,0,0,0,5.805-5.783,5.7,5.7,0,0,0-5.805-5.784m12.666,9.289a3.346,3.346,0,0,1-3.266-3.5,3.333,3.333,0,0,1,3.266-3.506,3.332,3.332,0,0,1,3.264,3.506,3.345,3.345,0,0,1-3.264,3.5m0-9.289a5.7,5.7,0,0,0-5.806,5.784,5.714,5.714,0,0,0,5.806,5.783,5.714,5.714,0,0,0,5.805-5.783,5.7,5.7,0,0,0-5.805-5.784" transform="translate(797.992 -835.617)" fill="#fff"/>
      </g>
    </g>
  </g>
  <g id="g44" transform="translate(13.563 10.153)">
    <g id="g46">
      <g id="g52">
        <g id="g54">
          <path id="path70" d="M-791.258,843.569a2.73,2.73,0,0,0-.628,1.911h0v30.077a2.727,2.727,0,0,0,.628,1.911h0l.1.1,16.85-16.848v-.4l-16.85-16.848Z" transform="translate(791.886 -843.47)" fill="url(#linear-gradient)"/>
        </g>
      </g>
    </g>
  </g>
  <g id="g72" transform="translate(31.142 21.385)">
    <g id="g74">
      <g id="g80">
        <g id="g82">
          <path id="path94" d="M-771.205,862.3v.4l5.616,5.619.128-.072,6.655-3.781c1.9-1.081,1.9-2.849,0-3.928h0l-6.655-3.782-.127-.072Z" transform="translate(771.205 -856.684)" fill="url(#linear-gradient-2)"/>
        </g>
      </g>
    </g>
  </g>
  <g id="g96" transform="translate(14.191 27.201)">
    <g id="g98">
      <g id="g104">
        <g id="g106">
          <path id="path114" d="M-791.147,880.477a2.216,2.216,0,0,0,2.827.084h0l19.867-11.289-5.743-5.745Z" transform="translate(791.147 -863.527)" fill="url(#linear-gradient-3)"/>
        </g>
      </g>
    </g>
  </g>
  <g id="g116" transform="translate(14.191 9.711)">
    <g id="g118">
      <g id="g124">
        <g id="g126">
          <path id="path140" d="M-791.147,843.491l16.95,16.95,5.743-5.744-19.867-11.288a3.114,3.114,0,0,0-1.524-.458h0a1.742,1.742,0,0,0-1.3.541" transform="translate(791.147 -842.95)" fill="url(#linear-gradient-4)"/>
        </g>
      </g>
    </g>
  </g>
  <g id="Grupo_244" data-name="Grupo 244" transform="translate(13.562 9.337)">
    <g id="Grupo_243" data-name="Grupo 243">
      <g id="Grupo_242" data-name="Grupo 242">
        <g id="Grupo_241" data-name="Grupo 241">
          <g id="g150" transform="translate(0.629 23.482)">
            <g id="g164">
              <g id="Grupo_237" data-name="Grupo 237" clip-path="url(#clip-path)">
                <g id="g162" transform="translate(0 0)" opacity="0.2">
                  <g id="g160">
                    <path id="path158" d="M-768.58,870.137l-19.74,11.216a2.264,2.264,0,0,1-2.725.014l-.1.1.1.1v0a2.263,2.263,0,0,0,2.725-.015l19.867-11.288Z" transform="translate(791.146 -870.137)"/>
                  </g>
                </g>
              </g>
            </g>
          </g>
          <g id="g10">
            <g id="g166" transform="translate(0 32.705)">
              <g id="g180">
                <g id="Grupo_238" data-name="Grupo 238" clip-path="url(#clip-path-2)">
                  <g id="g178" transform="translate(0)" opacity="0.12">
                    <g id="g176">
                      <path id="path174" d="M-791.257,882.9a2.723,2.723,0,0,1-.63-1.911v.2a2.72,2.72,0,0,0,.63,1.911l.1-.1Z" transform="translate(791.887 -880.987)"/>
                    </g>
                  </g>
                </g>
              </g>
            </g>
            <g id="g142">
              <g id="g182" transform="translate(23.196 17.865)">
                <g id="g196">
                  <g id="Grupo_239" data-name="Grupo 239" clip-path="url(#clip-path-3)">
                    <g id="g194" transform="translate(0 0)" opacity="0.12">
                      <g id="g192">
                        <path id="path190" d="M-757.817,865.293l-6.78,3.852.127.127,6.654-3.781a2.383,2.383,0,0,0,1.426-1.963,2.53,2.53,0,0,1-1.426,1.765" transform="translate(764.597 -863.528)"/>
                      </g>
                    </g>
                  </g>
                </g>
              </g>
              <g id="g144">
                <g id="g198" transform="translate(0 0.374)">
                  <g id="g212">
                    <g id="Grupo_240" data-name="Grupo 240" clip-path="url(#clip-path-4)">
                      <g id="g210" transform="translate(0 0)" opacity="0.25">
                        <g id="g208">
                          <path id="path206" d="M-788.431,843.607l26.52,15.068a2.525,2.525,0,0,1,1.425,1.766,2.382,2.382,0,0,0-1.425-1.964l-26.52-15.069c-1.9-1.08-3.456-.184-3.456,1.994v.2c0-2.176,1.555-3.073,3.456-1.993" transform="translate(791.887 -842.951)" fill="#fff"/>
                        </g>
                      </g>
                    </g>
                  </g>
                </g>
                <g id="g214" transform="translate(42.578 0.183)">
                  <path id="path216" d="M-740.747,849.883h1.448a3.063,3.063,0,0,0,2.24-.809,3.031,3.031,0,0,0,.825-2.269,3.035,3.035,0,0,0-.825-2.262,3.055,3.055,0,0,0-2.24-.814h-1.448Zm-1.047,1v-8.16h2.495a4.053,4.053,0,0,1,3.009,1.135,3.993,3.993,0,0,1,1.128,2.945,3.992,3.992,0,0,1-1.128,2.946,4.05,4.05,0,0,1-3.009,1.134Z" transform="translate(741.794 -842.725)" fill="#fff"/>
                </g>
                <g id="g218" transform="translate(42.578 0.183)">
                  <path id="path220" d="M-740.747,849.883h1.448a3.063,3.063,0,0,0,2.24-.809,3.031,3.031,0,0,0,.825-2.269,3.035,3.035,0,0,0-.825-2.262,3.055,3.055,0,0,0-2.24-.814h-1.448Zm-1.047,1v-8.16h2.495a4.053,4.053,0,0,1,3.009,1.135,3.993,3.993,0,0,1,1.128,2.945,3.992,3.992,0,0,1-1.128,2.946,4.05,4.05,0,0,1-3.009,1.134Z" transform="translate(741.794 -842.725)" fill="none" stroke="#fff" stroke-miterlimit="10" stroke-width="0.24"/>
                </g>
                <path id="path222" d="M-732.261,842.726h1.049v8.16h-1.049Z" transform="translate(782.942 -842.542)" fill="#fff" stroke="#fff" stroke-miterlimit="10" stroke-width="0.24"/>
                <g id="g224" transform="translate(53.051 0.001)">
                  <path id="path226" d="M-726.624,851.035a3.036,3.036,0,0,1-1.737-.581,2.684,2.684,0,0,1-1.113-1.63l.957-.386a2.186,2.186,0,0,0,.7,1.132,1.772,1.772,0,0,0,1.192.462,1.9,1.9,0,0,0,1.168-.359,1.148,1.148,0,0,0,.485-.975,1.247,1.247,0,0,0-.485-1.054,5.024,5.024,0,0,0-1.532-.689,4.109,4.109,0,0,1-1.641-.883,1.85,1.85,0,0,1-.559-1.385,2.023,2.023,0,0,1,.7-1.526,2.551,2.551,0,0,1,1.812-.65,2.622,2.622,0,0,1,1.686.518,2.4,2.4,0,0,1,.843,1.135l-.956.4a1.423,1.423,0,0,0-.507-.718,1.6,1.6,0,0,0-1.043-.329,1.612,1.612,0,0,0-1.031.336,1.025,1.025,0,0,0-.428.836.95.95,0,0,0,.393.769,3.768,3.768,0,0,0,1.158.564,9.606,9.606,0,0,1,1.009.377,4.581,4.581,0,0,1,.82.484,1.94,1.94,0,0,1,.627.752,2.452,2.452,0,0,1,.211,1.043,2.254,2.254,0,0,1-.245,1.06,2,2,0,0,1-.65.741,3.224,3.224,0,0,1-.872.415,3.256,3.256,0,0,1-.957.143" transform="translate(729.473 -842.511)" fill="#fff"/>
                </g>
                <g id="g228" transform="translate(53.051 0.001)">
                  <path id="path230" d="M-726.624,851.035a3.036,3.036,0,0,1-1.737-.581,2.684,2.684,0,0,1-1.113-1.63l.957-.386a2.186,2.186,0,0,0,.7,1.132,1.772,1.772,0,0,0,1.192.462,1.9,1.9,0,0,0,1.168-.359,1.148,1.148,0,0,0,.485-.975,1.247,1.247,0,0,0-.485-1.054,5.024,5.024,0,0,0-1.532-.689,4.109,4.109,0,0,1-1.641-.883,1.85,1.85,0,0,1-.559-1.385,2.023,2.023,0,0,1,.7-1.526,2.551,2.551,0,0,1,1.812-.65,2.622,2.622,0,0,1,1.686.518,2.4,2.4,0,0,1,.843,1.135l-.956.4a1.423,1.423,0,0,0-.507-.718,1.6,1.6,0,0,0-1.043-.329,1.612,1.612,0,0,0-1.031.336,1.025,1.025,0,0,0-.428.836.95.95,0,0,0,.393.769,3.768,3.768,0,0,0,1.158.564,9.606,9.606,0,0,1,1.009.377,4.581,4.581,0,0,1,.82.484,1.94,1.94,0,0,1,.627.752,2.452,2.452,0,0,1,.211,1.043,2.254,2.254,0,0,1-.245,1.06,2,2,0,0,1-.65.741,3.224,3.224,0,0,1-.872.415A3.256,3.256,0,0,1-726.624,851.035Z" transform="translate(729.473 -842.511)" fill="none" stroke="#fff" stroke-miterlimit="10" stroke-width="0.24"/>
                </g>
                <g id="g232" transform="translate(60.128 0.184)">
                  <path id="path234" d="M-720.1,846.577h1.755a1.351,1.351,0,0,0,1.06-.444,1.434,1.434,0,0,0,.4-.98,1.435,1.435,0,0,0-.4-.981,1.352,1.352,0,0,0-1.06-.445H-720.1Zm0,4.309h-1.049v-8.16h2.781a2.578,2.578,0,0,1,1.8.689,2.247,2.247,0,0,1,.757,1.738,2.242,2.242,0,0,1-.757,1.737,2.576,2.576,0,0,1-1.8.691H-720.1Z" transform="translate(721.147 -842.726)" fill="#fff"/>
                </g>
                <g id="g236" transform="translate(60.128 0.184)">
                  <path id="path238" d="M-720.1,846.577h1.755a1.351,1.351,0,0,0,1.06-.444,1.434,1.434,0,0,0,.4-.98,1.435,1.435,0,0,0-.4-.981,1.352,1.352,0,0,0-1.06-.445H-720.1Zm0,4.309h-1.049v-8.16h2.781a2.578,2.578,0,0,1,1.8.689,2.247,2.247,0,0,1,.757,1.738,2.242,2.242,0,0,1-.757,1.737,2.576,2.576,0,0,1-1.8.691H-720.1Z" transform="translate(721.147 -842.726)" fill="none" stroke="#fff" stroke-miterlimit="10" stroke-width="0.24"/>
                </g>
                <g id="g240" transform="translate(66.272)">
                  <path id="path242" d="M-711.944,849.115a3,3,0,0,0,2.217.917,2.994,2.994,0,0,0,2.217-.917,3.194,3.194,0,0,0,.908-2.342,3.191,3.191,0,0,0-.908-2.342,3,3,0,0,0-2.217-.918,3,3,0,0,0-2.217.918,3.2,3.2,0,0,0-.905,2.342,3.2,3.2,0,0,0,.905,2.342m5.209.682a4,4,0,0,1-2.992,1.238,3.994,3.994,0,0,1-2.99-1.238,4.168,4.168,0,0,1-1.2-3.024,4.173,4.173,0,0,1,1.2-3.026,4,4,0,0,1,2.99-1.238,4,4,0,0,1,2.987,1.243,4.174,4.174,0,0,1,1.208,3.021,4.172,4.172,0,0,1-1.2,3.024" transform="translate(713.919 -842.51)" fill="#fff"/>
                </g>
                <g id="g244" transform="translate(66.272)">
                  <path id="path246" d="M-711.944,849.115a3,3,0,0,0,2.217.917,2.994,2.994,0,0,0,2.217-.917,3.194,3.194,0,0,0,.908-2.342,3.191,3.191,0,0,0-.908-2.342,3,3,0,0,0-2.217-.918,3,3,0,0,0-2.217.918,3.2,3.2,0,0,0-.905,2.342A3.2,3.2,0,0,0-711.944,849.115Zm5.209.682a4,4,0,0,1-2.992,1.238,3.994,3.994,0,0,1-2.99-1.238,4.168,4.168,0,0,1-1.2-3.024,4.173,4.173,0,0,1,1.2-3.026,4,4,0,0,1,2.99-1.238,4,4,0,0,1,2.987,1.243,4.174,4.174,0,0,1,1.208,3.021A4.172,4.172,0,0,1-706.735,849.8Z" transform="translate(713.919 -842.51)" fill="none" stroke="#fff" stroke-miterlimit="10" stroke-width="0.24"/>
                </g>
                <g id="g248" transform="translate(76.13 0.184)">
                  <path id="path250" d="M-702.321,850.886v-8.16h1.276l3.967,6.347h.045l-.045-1.572v-4.774h1.048v8.16h-1.095l-4.148-6.656h-.046l.046,1.573v5.083Z" transform="translate(702.321 -842.726)" fill="#fff"/>
                </g>
                <g id="g252" transform="translate(76.13 0.184)">
                  <path id="path254" d="M-702.321,850.886v-8.16h1.276l3.967,6.347h.045l-.045-1.572v-4.774h1.048v8.16h-1.095l-4.148-6.656h-.046l.046,1.573v5.083Z" transform="translate(702.321 -842.726)" fill="none" stroke="#fff" stroke-miterlimit="10" stroke-width="0.24"/>
                </g>
                <path id="path256" d="M-692.721,842.726h1.048v8.16h-1.048Z" transform="translate(777.011 -842.542)" fill="#fff" stroke="#fff" stroke-miterlimit="10" stroke-width="0.24"/>
                <g id="g258" transform="translate(87.205 0.183)">
                  <path id="path260" d="M-688.242,849.883h2.109a1.246,1.246,0,0,0,.979-.423,1.35,1.35,0,0,0,.377-.921,1.318,1.318,0,0,0-.388-.918,1.328,1.328,0,0,0-1.015-.416h-2.063Zm0-3.658h1.9a1.231,1.231,0,0,0,.954-.393,1.259,1.259,0,0,0,.358-.861,1.243,1.243,0,0,0-.349-.854,1.168,1.168,0,0,0-.916-.388h-1.95Zm-1.049,4.66v-8.16h2.951a2.4,2.4,0,0,1,1.659.632,2.052,2.052,0,0,1,.7,1.59,1.778,1.778,0,0,1-.3,1.027,1.9,1.9,0,0,1-.8.672v.045a2.071,2.071,0,0,1,.993.707,1.852,1.852,0,0,1,.388,1.163,2.143,2.143,0,0,1-.735,1.663,2.515,2.515,0,0,1-1.738.661Z" transform="translate(689.291 -842.725)" fill="#fff"/>
                </g>
                <g id="g262" transform="translate(87.205 0.183)">
                  <path id="path264" d="M-688.242,849.883h2.109a1.246,1.246,0,0,0,.979-.423,1.35,1.35,0,0,0,.377-.921,1.318,1.318,0,0,0-.388-.918,1.328,1.328,0,0,0-1.015-.416h-2.063Zm0-3.658h1.9a1.231,1.231,0,0,0,.954-.393,1.259,1.259,0,0,0,.358-.861,1.243,1.243,0,0,0-.349-.854,1.168,1.168,0,0,0-.916-.388h-1.95Zm-1.049,4.66v-8.16h2.951a2.4,2.4,0,0,1,1.659.632,2.052,2.052,0,0,1,.7,1.59,1.778,1.778,0,0,1-.3,1.027,1.9,1.9,0,0,1-.8.672v.045a2.071,2.071,0,0,1,.993.707,1.852,1.852,0,0,1,.388,1.163,2.143,2.143,0,0,1-.735,1.663,2.515,2.515,0,0,1-1.738.661Z" transform="translate(689.291 -842.725)" fill="none" stroke="#fff" stroke-miterlimit="10" stroke-width="0.24"/>
                </g>
                <g id="g266" transform="translate(94.204 0.184)">
                  <path id="path268" d="M-681.057,850.886v-8.16h1.047v7.157h3.533v1Z" transform="translate(681.057 -842.726)" fill="#fff"/>
                </g>
                <g id="g270" transform="translate(94.204 0.184)">
                  <path id="path272" d="M-681.057,850.886v-8.16h1.047v7.157h3.533v1Z" transform="translate(681.057 -842.726)" fill="none" stroke="#fff" stroke-miterlimit="10" stroke-width="0.24"/>
                </g>
                <g id="g274" transform="translate(100.107 0.184)">
                  <path id="path276" d="M-669.348,843.728h-3.715v2.586h3.35v.981h-3.35v2.587h3.715v1h-4.764v-8.16h4.764Z" transform="translate(674.112 -842.726)" fill="#fff"/>
                </g>
                <g id="g278" transform="translate(100.107 0.184)">
                  <path id="path280" d="M-669.348,843.728h-3.715v2.586h3.35v.981h-3.35v2.587h3.715v1h-4.764v-8.16h4.764Z" transform="translate(674.112 -842.726)" fill="none" stroke="#fff" stroke-miterlimit="10" stroke-width="0.24"/>
                </g>
                <g id="g282" transform="translate(109.247 0.184)">
                  <path id="path284" d="M-658.595,843.728h-3.715v2.586h3.35v.981h-3.35v2.587h3.715v1h-4.764v-8.16h4.764Z" transform="translate(663.359 -842.726)" fill="#fff"/>
                </g>
                <g id="g286" transform="translate(109.247 0.184)">
                  <path id="path288" d="M-658.595,843.728h-3.715v2.586h3.35v.981h-3.35v2.587h3.715v1h-4.764v-8.16h4.764Z" transform="translate(663.359 -842.726)" fill="none" stroke="#fff" stroke-miterlimit="10" stroke-width="0.24"/>
                </g>
                <g id="g290" transform="translate(115.652 0.184)">
                  <path id="path292" d="M-655.824,850.886v-8.16h1.275l3.966,6.347h.046l-.046-1.572v-4.774h1.05v8.16h-1.095l-4.149-6.656h-.045l.045,1.573v5.083Z" transform="translate(655.824 -842.726)" fill="#fff"/>
                </g>
                <g id="g294" transform="translate(115.652 0.184)">
                  <path id="path296" d="M-655.824,850.886v-8.16h1.275l3.966,6.347h.046l-.046-1.572v-4.774h1.05v8.16h-1.095l-4.149-6.656h-.045l.045,1.573v5.083Z" transform="translate(655.824 -842.726)" fill="none" stroke="#fff" stroke-miterlimit="10" stroke-width="0.24"/>
                </g>
              </g>
            </g>
          </g>
        </g>
      </g>
    </g>
  </g>
</svg>
