<svg xmlns="http://www.w3.org/2000/svg" width="16.683" height="16.683" viewBox="0 0 16.683 16.683">
  <path id="Instagram" d="M11.713,16.683H4.97A4.975,4.975,0,0,1,0,11.713V4.97A4.975,4.975,0,0,1,4.97,0h6.743a4.975,4.975,0,0,1,4.97,4.97v6.743A4.975,4.975,0,0,1,11.713,16.683Zm-6.743-15A3.3,3.3,0,0,0,1.678,4.97v6.743A3.3,3.3,0,0,0,4.97,15h6.743A3.3,3.3,0,0,0,15,11.713V4.97a3.3,3.3,0,0,0-3.291-3.292ZM8.341,12.656a4.315,4.315,0,1,1,4.315-4.314A4.32,4.32,0,0,1,8.341,12.656Zm0-6.951a2.636,2.636,0,1,0,2.636,2.636A2.639,2.639,0,0,0,8.341,5.705Zm4.323-.612A1.034,1.034,0,1,1,13.7,4.059,1.035,1.035,0,0,1,12.664,5.093Z" fill="#fff"/>
</svg>
