<svg xmlns="http://www.w3.org/2000/svg" xmlns:xlink="http://www.w3.org/1999/xlink" width="151.752" height="86.583" viewBox="0 0 151.752 86.583">
  <defs>
    <linearGradient id="linear-gradient" x1="0.167" y1="-0.3" x2="0.904" y2="1.472" gradientUnits="objectBoundingBox">
      <stop offset="0.001" stop-color="#91004b"/>
      <stop offset="1" stop-color="#ec4371"/>
    </linearGradient>
  </defs>
  <g id="Grupo_622" data-name="Grupo 622" transform="translate(-85)">
    <path id="Trazado_1441" data-name="Trazado 1441" d="M148.185-113.582H28.349v25.165H180.1v-52.561C180.1-120.431,165.725-113.582,148.185-113.582Z" transform="translate(56.651 175)" fill="url(#linear-gradient)"/>
    <g id="Grupo_621" data-name="Grupo 621" transform="translate(85)">
      <path id="Trazado_92" data-name="Trazado 92" d="M148.185-135.054c17.54,0,31.916-5.849,31.916-23.393v-46.135H28.349v69.528Z" transform="translate(-28.349 204.582)" fill="#fff"/>
      <path id="Trazado_93" data-name="Trazado 93" d="M148.185-135.054c17.54,0,31.916-5.849,31.916-23.393v-46.135H28.349v69.528Z" transform="translate(-28.349 204.582)" fill="#fff"/>
    </g>
    <path id="Trazado_1442" data-name="Trazado 1442" d="M90.2-172.2v20.744h-6.76v-8.158H76.407v8.158h-6.76V-172.2h6.76v8.246h7.035V-172.2Zm23.513,16.578V-172.2h-6.757v20.744h12.22l1.018-4.167ZM101.958-172.2H95.2v20.744h6.759V-172.2Zm27.4,0H122.6v20.744h6.758V-172.2ZM162.69-166.9c0-1.129,1.206-1.648,3.149-1.648a18.045,18.045,0,0,1,6.019,1.04l-.557-4.513a28.152,28.152,0,0,0-6.2-.607c-5.461,0-9.166,2.018-9.166,6.249,0,7.29,10.555,5.816,10.555,9.2,0,1.3-1.018,2-3.518,2a21.393,21.393,0,0,1-7.685-1.65l.742,4.774a23.761,23.761,0,0,0,7.036,1.042c5.646,0,10.275-1.736,10.275-6.944,0-6.943-10.647-5.643-10.647-8.94Zm-8.793,2.171c0,5.3-3.983,8.332-10.277,8.332h-2.407v4.946h-6.759V-172.2a80.964,80.964,0,0,1,8.238-.434C149.638-172.631,153.9-170.548,153.9-164.731Zm-6.666.086c0-2.6-1.575-4.08-4.908-4.08-.347,0-.716,0-1.11.022v8.572h1.11C145.841-160.132,147.23-161.954,147.23-164.645Zm-80.268-.086c0,5.3-3.98,8.332-10.276,8.332H54.279v4.946H47.521V-172.2a80.974,80.974,0,0,1,8.241-.434C62.705-172.631,66.962-170.548,66.962-164.731Zm-6.666.086c0-2.6-1.573-4.08-4.906-4.08-.347,0-.717,0-1.111.022v8.572H55.39C58.908-160.132,60.3-161.954,60.3-164.645Z" transform="translate(50.471 195.846)" fill="#0b5ed7"/>
  </g>
</svg>
