<svg xmlns="http://www.w3.org/2000/svg" width="35.819" height="45.614" viewBox="0 0 35.819 45.614">
  <path id="Trazado_85" data-name="Trazado 85" d="M3978.209,498.723a150.925,150.925,0,0,0-18,.979v26.725a17.91,17.91,0,1,0,35.819-.233V499.7A144.221,144.221,0,0,0,3978.209,498.723Zm6.042,4.351a18.752,18.752,0,0,1,2.03-.114c1.71,0,2.759.548,2.759,2.077,0,1.392-.981,2.19-2.53,2.19h-.593v1.3h-1.666Zm-2.918,0H3983v5.454h-1.665Zm-3.854,0h1.665v4.358h1.6l-.25,1.1h-3.01Zm-2.9,0h1.665v5.454h-1.665Zm3.527,7.845a15.555,15.555,0,0,1,14.929,11.235,13.771,13.771,0,0,0-7.167-2.07c-6.473,0-9.759,4.122-15.4,5.186l.412-3.508c.25-1.745.477-2.194,1.949-2.428l4.16-.55v-.279l-2.669-.325.262-2.032c.067-.592.343-.862,1.087-.954l2.166-.292v-.158l-2.307-.3a.969.969,0,0,1-.954-1l-.271-2.049A14.475,14.475,0,0,1,3978.111,510.919Zm-7.3,4.006,2.034.287c.671.075.909.4,1,1.119l.232,1.817-1.714-.25a1.745,1.745,0,0,1-1.382-1.75Zm3.006-1.412c-.116.65-.395.853-1.087.958l-1.958.246-.221-1.841a14.32,14.32,0,0,1,3.536-1.424Zm-5.532-10.439h1.665v2.168h1.733v-2.168h1.665v5.454h-1.665v-2.145h-1.733v2.145h-1.665Zm1.727,10.133-.384,2.905a2.151,2.151,0,0,1-.485,1.318,2.249,2.249,0,0,1-1.3.534l-2.983.393A15.255,15.255,0,0,1,3970.017,513.207Zm-7.177-10.133a18.747,18.747,0,0,1,2.03-.114c1.71,0,2.759.548,2.759,2.077,0,1.392-.98,2.19-2.531,2.19h-.593v1.3h-1.665Zm1.7,15.84,3.223.412a2.079,2.079,0,0,1,1.348.533c.285.32.409.51.581,1.711l.479,3.762a15.179,15.179,0,0,1-2.2.182,14.471,14.471,0,0,1-5.248-1.036A14.663,14.663,0,0,1,3964.54,518.915Zm18.577,15.9c1.311.141,1.921.575,2.062,1.867l.441,3.327a15.259,15.259,0,0,1-7.513,1.949,15.482,15.482,0,0,1-14.945-11.312,14.261,14.261,0,0,0,7.258,2.078c6.854,0,10.174-4.359,15.306-5.27l-.542,4.246c-.19,1.1-.491,1.572-1.808,1.79l-4.211.536v.289Zm3.021,4.923h0l.33-2.656c.217-1.5.458-2.041,1.914-2.226l3.02-.39A15.919,15.919,0,0,1,3986.139,539.738Zm5.571-5.8-3.05-.4c-1.57-.184-1.962-.57-2.162-2.1l-.518-4.028a15.042,15.042,0,0,1,2.232-.177,15.954,15.954,0,0,1,5.312,1.066A14.923,14.923,0,0,1,3991.709,533.937Zm-4.391-9.072c-7.291,0-10.264,5.364-17.573,5.364a13.245,13.245,0,0,1-7.054-1.882h0c-.048-.436-.1-1.33-.108-1.916a13.164,13.164,0,0,0,6.317,1.516c7.208,0,10.463-5.4,17.557-5.4a13.575,13.575,0,0,1,7.054,1.874c.073.645.094,1.291.121,1.936A13.763,13.763,0,0,0,3987.318,524.866Zm3.979-16.223a5.5,5.5,0,0,1-1.732-.274l-.183-1.255a4.978,4.978,0,0,0,1.892.433c.616,0,.868-.182.868-.524,0-.89-2.6-.5-2.6-2.419,0-1.112.912-1.643,2.257-1.643a6.514,6.514,0,0,1,1.528.16l.137,1.187a4.172,4.172,0,0,0-1.482-.275c-.479,0-.775.137-.775.434,0,.867,2.623.525,2.623,2.35C3993.829,508.186,3992.688,508.642,3991.3,508.642Z" transform="translate(-3960.207 -498.723)" fill="#fff"/>
</svg>
