<svg xmlns="http://www.w3.org/2000/svg" width="17.664" height="13.738" viewBox="0 0 17.664 13.738">
  <path id="Youtube" d="M8.832,13.739h0c-.046,0-4.615-.033-6-.187-.074-.018-.165-.031-.27-.046a2.477,2.477,0,0,1-1.679-.8,4.7,4.7,0,0,1-.7-1.936A31.275,31.275,0,0,1,0,7.619V6.151C0,4.58.181,2.982.183,2.966a4.271,4.271,0,0,1,.7-1.936A2.406,2.406,0,0,1,2.6.223h0l.049,0C5.087.034,8.795,0,8.832,0s3.745.034,6.182.219L15.1.226a2.249,2.249,0,0,1,1.683.8,4.7,4.7,0,0,1,.7,1.936c0,.016.183,1.612.183,3.185V7.619c0,1.54-.181,3.138-.183,3.153a4.7,4.7,0,0,1-.7,1.936,2.406,2.406,0,0,1-1.713.807h0l-.049,0C12.576,13.736,8.869,13.739,8.832,13.739ZM6.7,3.716v6.776l5.787-3.31Z" fill="#fff"/>
</svg>
